Encoder : Ratzz.



Source : hdchina thanks.



General
Format                           : MP4
Format profile                   : Base Media
Codec ID                         : isom
File size                        : 701 MiB
Duration                         : 1h 29mn
Overall bit rate                 : 1 090 Kbps
Encoded date                     : UTC 2012-02-19 14:02:39
Tagged date                      : UTC 2012-02-19 14:02:39

Video
ID                               : 1
Format                           : AVC
Format/Info                      : Advanced Video Codec
Format profile                   : High@L4.0
Format settings, CABAC           : Yes
Format settings, ReFrames        : 3 frames
Codec ID                         : avc1
Codec ID/Info                    : Advanced Video Coding
Duration                         : 1h 29mn
Bit rate mode                    : Variable
Bit rate                         : 1 024 Kbps
Maximum bit rate                 : 25.0 Mbps
Width                            : 1 280 pixels
Height                           : 690 pixels
Display aspect ratio             : 1.855
Frame rate mode                  : Constant
Frame rate                       : 23.976 fps
Color space                      : YUV
Chroma subsampling               : 4:2:0
Bit depth                        : 8 bits
Scan type                        : Progressive
Bits/(Pixel*Frame)               : 0.048
Stream size                      : 658 MiB (94%)
Title                            : A Monster in Paris 2011 720p BluRay Ratzz
Encoded date                     : UTC 2012-02-19 14:02:39
Tagged date                      : UTC 2012-02-19 14:03:01

Audio
ID                               : 2
Format                           : AAC
Format/Info                      : Advanced Audio Codec
Format profile                   : HE-AAC / LC
Codec ID                         : 40
Duration                         : 1h 29mn
Bit rate mode                    : Variable
Bit rate                         : 64.0 Kbps
Maximum bit rate                 : 71.4 Kbps
Channel(s)                       : 2 channels
Channel positions                : Front: L R
Sampling rate                    : 48.0 KHz / 24.0 KHz
Compression mode                 : Lossy
Stream size                      : 41.2 MiB (6%)
Language                         : French
Encoded date                     : UTC 2012-02-19 14:02:58
Tagged date                      : UTC 2012-02-19 14:03:01

Subtitles : eng .srt file included



pls keep seeding after download and do reply about quality.

